<svg width="35" height="35" viewBox="0 0 35 35" fill="none" xmlns="http://www.w3.org/2000/svg">
<path opacity="0.25" d="M33.8261 17.5101C33.8261 26.288 26.5038 33.4505 17.413 33.4505C8.32225 33.4505 1 26.288 1 17.5101C1 8.73223 8.32225 1.5697 17.413 1.5697C26.5038 1.5697 33.8261 8.73223 33.8261 17.5101Z" stroke="white" stroke-width="2"/>
<path d="M16.0192 22.6999L16.0034 17.9589H13.9304V15.927H16.0034V14.5724C16.0034 12.7443 17.1584 11.8633 18.8222 11.8633C19.6192 11.8633 20.3042 11.9214 20.5038 11.9474V13.8579L19.3499 13.8585C18.445 13.8585 18.2698 14.2799 18.2698 14.8984V15.927H20.8404L20.1494 17.9589H18.2698V22.6999H16.0192Z" fill="white"/>
</svg>
