<svg width="35" height="35" viewBox="0 0 35 35" fill="none" xmlns="http://www.w3.org/2000/svg">
<path opacity="0.25" d="M33.9999 17.5101C33.9999 26.288 26.6777 33.4505 17.5869 33.4505C8.49608 33.4505 1.17383 26.288 1.17383 17.5101C1.17383 8.73223 8.49608 1.5697 17.5869 1.5697C26.6777 1.5697 33.9999 8.73223 33.9999 17.5101Z" stroke="white" stroke-width="2"/>
<path d="M20.1933 15.5843C20.5266 15.5843 20.7969 15.3214 20.7969 14.9971C20.7969 14.6727 20.5266 14.4098 20.1933 14.4098C19.8599 14.4098 19.5896 14.6727 19.5896 14.9971C19.5896 15.3214 19.8599 15.5843 20.1933 15.5843Z" fill="white"/>
<path fill-rule="evenodd" clip-rule="evenodd" d="M15.0715 17.5101C15.0715 18.8595 16.1996 19.957 17.5868 19.957C18.9739 19.957 20.102 18.8595 20.102 17.5101C20.102 16.1606 18.9739 15.0631 17.5868 15.0631C16.1996 15.0631 15.0715 16.1606 15.0715 17.5101ZM16.3291 17.5101C16.3291 16.8353 16.8931 16.2866 17.5867 16.2866C18.2803 16.2866 18.8443 16.8353 18.8443 17.5101C18.8443 18.1848 18.2803 18.7336 17.5867 18.7336C16.8931 18.7336 16.3291 18.1848 16.3291 17.5101Z" fill="white"/>
<path fill-rule="evenodd" clip-rule="evenodd" d="M15.0716 22.404H20.102C21.3949 22.404 22.6173 21.2148 22.6173 19.9571V15.0632C22.6173 13.8054 21.3949 12.6162 20.102 12.6162H15.0716C13.7788 12.6162 12.5564 13.8054 12.5564 15.0632V19.9571C12.5564 21.2148 13.7788 22.404 15.0716 22.404ZM13.814 15.0632C13.814 14.4912 14.4837 13.8397 15.0716 13.8397H20.1021C20.69 13.8397 21.3597 14.4912 21.3597 15.0632V19.9571C21.3597 20.5291 20.69 21.1806 20.1021 21.1806H15.0716C14.4724 21.1806 13.814 20.5401 13.814 19.9571V15.0632Z" fill="white"/>
</svg>
