<svg width="111" height="18" viewBox="0 0 111 18" fill="none" xmlns="http://www.w3.org/2000/svg">
<path d="M15.7076 17.1628C15.7764 17.7127 15.4326 17.9877 14.9513 17.7127L10.8258 15.6503C10.3445 15.3753 9.51948 15.3753 9.03818 15.6503L4.844 17.7127C4.3627 17.9877 4.01891 17.7127 4.08766 17.1628L4.77523 12.5567C4.84399 12.0067 4.63773 11.2505 4.22519 10.838L0.993595 7.53814C0.581053 7.12566 0.718563 6.71318 1.26862 6.64443L5.87535 5.88821C6.42541 5.81946 7.11298 5.33823 7.31925 4.857L9.45071 0.732165C9.72573 0.250934 10.1383 0.250934 10.4133 0.732165L12.5448 4.857C12.8198 5.33823 13.4386 5.81947 13.9887 5.95696L18.5954 6.71319C19.1455 6.78193 19.283 7.19441 18.8704 7.60689L15.5701 10.9068C15.1576 11.3193 14.9513 12.0755 15.02 12.6255L15.7076 17.1628ZM37.8474 12.5567C37.7786 12.0067 38.0537 11.2505 38.3974 10.838L41.6978 7.53814C42.1103 7.12566 41.9728 6.71318 41.4227 6.64443L36.816 5.88821C36.266 5.81946 35.5784 5.33823 35.3721 4.78825L33.2407 0.663413C32.9656 0.182183 32.5531 0.182183 32.2781 0.663413L30.1466 4.78825C29.8716 5.26948 29.2527 5.75071 28.7027 5.81946L24.096 6.57568C23.5459 6.64443 23.4084 7.05693 23.821 7.46941L27.0525 10.7693C27.4651 11.1818 27.6713 11.938 27.6026 12.488L26.915 17.094C26.8463 17.644 27.19 17.919 27.6713 17.644L31.8655 15.5816C32.3468 15.3066 33.1719 15.3066 33.6532 15.5816L37.7786 17.644C38.2599 17.919 38.6037 17.644 38.535 17.094L37.8474 12.5567ZM60.6747 12.5567C60.606 12.0067 60.881 11.2505 61.2248 10.838L64.5251 7.53814C64.9377 7.12566 64.8002 6.71318 64.2501 6.64443L59.6434 5.88821C59.0933 5.81946 58.4058 5.33823 58.1995 4.78825L56.068 0.663413C55.793 0.182183 55.3805 0.182183 55.1054 0.663413L52.9739 4.78825C52.6989 5.26948 52.0801 5.75071 51.53 5.81946L46.9233 6.57568C46.3733 6.64443 46.2357 7.05693 46.6483 7.46941L49.8799 10.7693C50.2924 11.1818 50.4987 11.938 50.4299 12.488L49.7424 17.094C49.6736 17.644 50.0174 17.919 50.4987 17.644L54.6929 15.5816C55.1742 15.3066 55.9993 15.3066 56.4806 15.5816L60.606 17.644C61.0873 17.919 61.4311 17.644 61.3623 17.094L60.6747 12.5567ZM83.4333 12.5567C83.3646 12.0067 83.6396 11.2505 83.9834 10.838L87.2837 7.53814C87.6963 7.12566 87.5588 6.71318 87.0087 6.64443L82.402 5.88821C81.8519 5.81946 81.1643 5.33823 80.9581 4.78825L78.8266 0.663413C78.5516 0.182183 78.139 0.182183 77.864 0.663413L75.7325 4.78825C75.4575 5.26948 74.8387 5.75071 74.2886 5.81946L69.6819 6.57568C69.1319 6.64443 68.9943 7.05693 69.4069 7.46941L72.6385 10.7693C73.051 11.1818 73.2573 11.938 73.1885 12.488L72.501 17.094C72.4322 17.644 72.776 17.919 73.2573 17.644L77.4515 15.5816C77.9328 15.3066 78.7578 15.3066 79.2391 15.5816L83.3646 17.644C83.8459 17.919 84.1897 17.644 84.1209 17.094L83.4333 12.5567ZM106.192 12.5567C106.123 12.0067 106.398 11.2505 106.742 10.838L110.042 7.53814C110.455 7.12566 110.317 6.71318 109.767 6.64443L105.161 5.88821C104.611 5.81946 103.923 5.33823 103.717 4.78825L101.585 0.663413C101.31 0.182183 100.898 0.182183 100.623 0.663413L98.4911 4.78825C98.2161 5.26948 97.5973 5.75071 97.0472 5.81946L92.4405 6.57568C91.8904 6.64443 91.7529 7.05693 92.1655 7.46941L95.397 10.7693C95.8096 11.1818 96.0159 11.938 95.9471 12.488L95.2595 17.094C95.1908 17.644 95.5346 17.919 96.0159 17.644L100.21 15.5816C100.691 15.3066 101.516 15.3066 101.998 15.5816L106.123 17.644C106.604 17.919 106.948 17.644 106.879 17.094L106.192 12.5567Z" fill="#FFE527"/>
</svg>
