<svg width="29" height="28" viewBox="0 0 29 28" 
fill="#ffffff" xmlns="http://www.w3.org/2000/svg">
<path d="M0 28L2.03845 20.8098C0.780581 18.7052 0.119625 16.3193 0.120833 13.8728C0.124458 6.22417 6.5709 0 14.4915 0C18.3352 0.00116667 21.9433 1.44667 24.6572 4.06933C27.3699 6.692 28.8634 10.178 28.8622 13.8857C28.8586 21.5355 22.4121 27.7597 14.4915 27.7597C12.0869 27.7585 9.71739 27.1763 7.61852 26.0703L0 28ZM7.97136 23.5585C9.99652 24.7193 11.9298 25.4147 14.4867 25.4158C21.0697 25.4158 26.4322 20.2428 26.4359 13.8833C26.4383 7.511 21.1011 2.345 14.4963 2.34267C7.90852 2.34267 2.54958 7.51567 2.54716 13.874C2.54595 16.4698 3.33378 18.4135 4.65691 20.447L3.44978 24.703L7.97136 23.5585ZM21.7306 17.1838C21.6412 17.0392 21.402 16.9528 21.0419 16.779C20.683 16.6052 18.9176 15.7663 18.5877 15.6508C18.2591 15.5353 18.0198 15.477 17.7794 15.8247C17.5401 16.1712 16.8514 16.9528 16.6423 17.1838C16.4333 17.4148 16.223 17.444 15.8642 17.2702C15.5053 17.0963 14.3477 16.7312 12.9763 15.5493C11.9093 14.63 11.1879 13.4948 10.9789 13.1472C10.7699 12.8007 10.9571 12.6128 11.136 12.4402C11.2979 12.285 11.4948 12.0353 11.6749 11.8323C11.8573 11.6317 11.9166 11.487 12.0374 11.2548C12.157 11.0238 12.0978 10.8208 12.0072 10.647C11.9166 10.4743 11.1988 8.7675 10.9004 8.07333C10.6079 7.39783 10.3119 7.48883 10.092 7.47833L9.40323 7.46667C9.16398 7.46667 8.7749 7.553 8.44623 7.90067C8.11757 8.24833 7.18957 9.086 7.18957 10.7928C7.18957 12.4997 8.47644 14.1482 8.65527 14.3792C8.83531 14.6102 11.1867 18.1125 14.7888 19.614C15.6455 19.971 16.3149 20.1845 16.8357 20.3443C17.696 20.608 18.479 20.5707 19.0977 20.482C19.7876 20.3828 21.2219 19.6432 21.5216 18.8335C21.8212 18.0227 21.8212 17.3285 21.7306 17.1838Z" fill="#ffffff"/>
</svg>
